<?xml version="1.0" encoding="utf-8"?>
<!-- Generator: Adobe Illustrator 24.1.1, SVG Export Plug-In . SVG Version: 6.00 Build 0)  -->
<svg version="1.1" id="Livello_1" xmlns="http://www.w3.org/2000/svg" xmlns:xlink="http://www.w3.org/1999/xlink" x="0px" y="0px"
	 viewBox="0 0 500 500" style="enable-background:new 0 0 500 500;" xml:space="preserve">
<style type="text/css">
	.st0{fill:#FFFFFF;stroke:url(#SVGID_1_);stroke-width:13.5614;stroke-miterlimit:10;}
	.st1{fill:#FFFFFF;stroke:url(#SVGID_2_);stroke-width:13.5614;stroke-miterlimit:10;}
	.st2{fill:#FFFFFF;stroke:url(#SVGID_3_);stroke-width:13.5614;stroke-miterlimit:10;}
	.st3{fill:#FFFFFF;stroke:url(#SVGID_4_);stroke-width:13.5614;stroke-miterlimit:10;}
	.st4{fill:#FFFFFF;stroke:url(#SVGID_5_);stroke-width:13.5614;stroke-miterlimit:10;}
	.st5{fill:#FFFFFF;stroke:url(#SVGID_6_);stroke-width:13.5614;stroke-miterlimit:10;}
	.st6{fill:#FFFFFF;stroke:url(#SVGID_7_);stroke-width:13.5614;stroke-miterlimit:10;}
	.st7{fill:#FFFFFF;stroke:url(#SVGID_8_);stroke-width:13.5614;stroke-miterlimit:10;}
	.st8{fill:#FFFFFF;stroke:url(#SVGID_9_);stroke-width:5;stroke-miterlimit:10;}
	.st9{fill:#FFFFFF;stroke:url(#SVGID_10_);stroke-width:13.5614;stroke-miterlimit:10;}
	.st10{fill:#FFFFFF;stroke:#000000;stroke-width:5;stroke-miterlimit:10;}
	.st11{fill:#FFFFFF;stroke:url(#SVGID_11_);stroke-width:13.5614;stroke-miterlimit:10;}
	.st12{fill:none;stroke:#983BBF;stroke-width:5;stroke-miterlimit:10;}
	.st13{fill:none;stroke:#F2B05E;stroke-width:5;stroke-miterlimit:10;}
</style>
<g>
	<linearGradient id="SVGID_1_" gradientUnits="userSpaceOnUse" x1="37.8161" y1="408.1991" x2="460.4081" y2="408.1991">
		<stop  offset="0" style="stop-color:#983BBF"/>
		<stop  offset="1" style="stop-color:#F2B05E"/>
	</linearGradient>
	<path class="st0" d="M430.09,451.69H68.13c-13,0-23.53-10.54-23.53-23.53v-39.92c0-13,10.54-23.53,23.53-23.53h361.96
		c13,0,23.53,10.54,23.53,23.53v39.92C453.63,441.16,443.09,451.69,430.09,451.69z"/>
	<linearGradient id="SVGID_2_" gradientUnits="userSpaceOnUse" x1="35.246" y1="298.9361" x2="457.8381" y2="298.9361">
		<stop  offset="0" style="stop-color:#983BBF"/>
		<stop  offset="1" style="stop-color:#F2B05E"/>
	</linearGradient>
	<path class="st1" d="M427.52,342.43H65.56c-13,0-23.53-10.54-23.53-23.53v-39.92c0-13,10.54-23.53,23.53-23.53h361.96
		c13,0,23.53,10.54,23.53,23.53v39.92C451.06,331.89,440.52,342.43,427.52,342.43z"/>
	<linearGradient id="SVGID_3_" gradientUnits="userSpaceOnUse" x1="35.246" y1="122.6543" x2="457.8381" y2="122.6543">
		<stop  offset="0" style="stop-color:#983BBF"/>
		<stop  offset="1" style="stop-color:#F2B05E"/>
	</linearGradient>
	<path class="st2" d="M42.03,212.65c0-112.95,91.56-180,204.52-180s204.52,67.05,204.52,180H42.03z"/>
	<linearGradient id="SVGID_4_" gradientUnits="userSpaceOnUse" x1="35.246" y1="225.2085" x2="167.4923" y2="225.2085">
		<stop  offset="0" style="stop-color:#983BBF"/>
		<stop  offset="1" style="stop-color:#F2B05E"/>
	</linearGradient>
	<path class="st3" d="M150.92,236.18h-99.1c-5.41,0-9.79-4.38-9.79-9.79v-2.35c0-5.41,4.38-9.79,9.79-9.79h99.1
		c5.41,0,9.79,4.38,9.79,9.79v2.35C160.71,231.79,156.33,236.18,150.92,236.18z"/>
	<linearGradient id="SVGID_5_" gradientUnits="userSpaceOnUse" x1="167.3929" y1="225.2085" x2="319.5411" y2="225.2085">
		<stop  offset="0" style="stop-color:#983BBF"/>
		<stop  offset="1" style="stop-color:#F2B05E"/>
	</linearGradient>
	<path class="st4" d="M302.93,236.18H184.01c-5.43,0-9.83-4.4-9.83-9.83v-2.27c0-5.43,4.4-9.83,9.83-9.83h118.92
		c5.43,0,9.83,4.4,9.83,9.83v2.27C312.76,231.77,308.36,236.18,302.93,236.18z"/>
	<linearGradient id="SVGID_6_" gradientUnits="userSpaceOnUse" x1="319.4166" y1="225.2085" x2="457.8381" y2="225.2085">
		<stop  offset="0" style="stop-color:#983BBF"/>
		<stop  offset="1" style="stop-color:#F2B05E"/>
	</linearGradient>
	<path class="st5" d="M440.09,236.18H337.16c-6.06,0-10.97-4.91-10.97-10.97v0c0-6.06,4.91-10.97,10.97-10.97h102.92
		c6.06,0,10.97,4.91,10.97,10.97v0C451.06,231.27,446.15,236.18,440.09,236.18z"/>
	<linearGradient id="SVGID_7_" gradientUnits="userSpaceOnUse" x1="6.0106" y1="261.0727" x2="492.2981" y2="261.0727">
		<stop  offset="0" style="stop-color:#983BBF"/>
		<stop  offset="1" style="stop-color:#F2B05E"/>
	</linearGradient>
	<path class="st6" d="M482.49,282.32c-64.61-12.74-144.78-23.19-236.91-23.34c-88.96-0.14-166.68,9.35-229.84,21.22
		c1.89-6.25,5.08-14.51,10.61-23.34c5.29-8.45,11.05-14.73,15.68-19.09c136.34,0,272.69,0,409.03,0c3.23,2.31,6.61,5.08,9.95,8.4
		C473.62,258.67,479.56,272.79,482.49,282.32z"/>
	<linearGradient id="SVGID_8_" gradientUnits="userSpaceOnUse" x1="413.537" y1="292.5713" x2="413.537" y2="292.5713">
		<stop  offset="0" style="stop-color:#983BBF"/>
		<stop  offset="1" style="stop-color:#F2B05E"/>
	</linearGradient>
	<path class="st7" d="M413.54,292.57"/>
	<linearGradient id="SVGID_9_" gradientUnits="userSpaceOnUse" x1="-32.5485" y1="237.5394" x2="-32.5485" y2="237.5394">
		<stop  offset="0" style="stop-color:#983BBF"/>
		<stop  offset="1" style="stop-color:#F2B05E"/>
	</linearGradient>
	<path class="st8" d="M-32.55,237.54"/>
	<linearGradient id="SVGID_10_" gradientUnits="userSpaceOnUse" x1="232.8464" y1="320.5059" x2="232.8464" y2="320.5059">
		<stop  offset="0" style="stop-color:#983BBF"/>
		<stop  offset="1" style="stop-color:#F2B05E"/>
	</linearGradient>
	<path class="st9" d="M232.85,320.51"/>
	<path class="st10" d="M-88.03,201.77"/>
	<linearGradient id="SVGID_11_" gradientUnits="userSpaceOnUse" x1="24.0501" y1="372.3978" x2="470.3748" y2="372.3978">
		<stop  offset="0" style="stop-color:#983BBF"/>
		<stop  offset="1" style="stop-color:#F2B05E"/>
	</linearGradient>
	<path class="st11" d="M462.9,382.21c0.8,5.77,1.17,8.69-0.32,10.28c-7.36,7.81-35.91-21.81-62.83-13.46
		c-12.57,3.9-12.3,12.21-24.4,13.79c-16.79,2.19-21.07-13.33-39.78-15.91c-24.87-3.44-34.1,21.67-57.81,16.97
		c-16-3.17-17.45-15.72-32.89-15.91c-14.88-0.18-16.91,11.45-32.88,13.26c-19.97,2.26-24.68-15.04-45.08-14.32
		c-20.68,0.73-23.68,18.77-43.49,18.56c-18.02-0.18-19.83-15.14-40.84-18.56c-25.46-4.15-43.14,14.5-49.86,7.96
		c-3.29-3.21-3.42-11.93,9.32-35.54h409.03C455.41,356.46,460.88,367.62,462.9,382.21z"/>
</g>
<rect x="-511.21" y="-77.17" class="st12" width="125.62" height="133.79"/>
<rect x="-518.36" y="94.4" class="st13" width="141.96" height="128.74"/>
</svg>
